HIERARCHY
ROOT Hips
{
  OFFSET 0 0 0
  CHANNELS 6 Xposition Yposition Zposition Zrotation Yrotation Xrotation
  JOINT LeftThigh
  {
    OFFSET 8.409438 0 -5.917753
    CHANNELS 3 Zrotation Yrotation Xrotation
    JOINT LeftLeg
    {
      OFFSET 0 0 -42.358652
      CHANNELS 3 Zrotation Yrotation Xrotation
      JOINT LeftFoot
      {
        OFFSET 0 0 -39.357303
        CHANNELS 3 Zrotation Yrotation Xrotation
      }
    }
  }
  JOINT RightThigh
  {
    OFFSET -8.409438 0 -5.917753
    CHANNELS 3 Zrotation Yrotation Xrotation
    JOINT RightLeg
    {
      OFFSET 0 0 -42.358652
      CHANNELS 3 Zrotation Yrotation Xrotation
      JOINT RightFoot
      {
        OFFSET 0 0 -39.357303
        CHANNELS 3 Zrotation Yrotation Xrotation
      }
    }
  }
  JOINT SpineLow
  {
    OFFSET 0 0 4.719101
    CHANNELS 3 Zrotation Yrotation Xrotation
    JOINT SpineMid
    {
      OFFSET 0 0 12.899191
      CHANNELS 3 Zrotation Yrotation Xrotation
      JOINT Chest
      {
        OFFSET 0 0 12.899191
        CHANNELS 3 Zrotation Yrotation Xrotation
        JOINT LeftShoulder
        {
          OFFSET 7.550562 1.41573 9.438202
          CHANNELS 3 Zrotation Yrotation Xrotation
          JOINT LeftArm
          {
            OFFSET 9.155056 0 4.247191
            CHANNELS 3 Zrotation Yrotation Xrotation
            JOINT LeftForearm
            {
              OFFSET 0 0 25.771955
              CHANNELS 3 Zrotation Yrotation Xrotation
              JOINT LeftHand
              {
                OFFSET 0 0 25.197169
                CHANNELS 3 Zrotation Yrotation Xrotation
              }
            }
          }
        }
        JOINT RightShoulder
        {
          OFFSET -7.550562 1.41573 9.438202
          CHANNELS 3 Zrotation Yrotation Xrotation
          JOINT RightArm
          {
            OFFSET -9.155056 0 4.247191
            CHANNELS 3 Zrotation Yrotation Xrotation
            JOINT RightForearm
            {
              OFFSET 0 0 -25.771955
              CHANNELS 3 Zrotation Yrotation Xrotation
              JOINT RightHand
              {
                OFFSET 0 0 -25.197169
                CHANNELS 3 Zrotation Yrotation Xrotation
              }
            }
          }
        }
        JOINT Neck
        {
          OFFSET 0 0 15.101124
          CHANNELS 3 Zrotation Yrotation Xrotation
          JOINT Head
          {
            OFFSET 0 0 11.325843
            CHANNELS 3 Zrotation Yrotation Xrotation
            End Site
            {
              OFFSET 0 0 14.157303
            }
          }
        }
      }
    }
  }
}
MOTION
Frames: 10
Frame Time: 0.0
0.0  93.25843  0.0  -6.807839  -6.588116  -131.282326  2.183462  -11.64098  22.496352  -11.054271  0.694014  16.790047  0.521994  1.895665  4.019398  33.028758  -37.835835  -104.67372  21.292211  33.641242  107.876739  17.207937  16.014386  3.755134  -0.926195  -2.697487  3.627129  -2.941227  -7.213554  10.053396  -2.941227  -7.213554  10.053396  -3.788642  28.2221  18.690949  171.505429  43.080091  -140.263399  -25.805359  4.635218  58.235258  97.289398  -4.309981  -14.412874  -4.974185  -2.982676  25.27679  64.89925  41.908899  32.789001  -24.285506  -6.467003  -76.968619  80.326564  -2.173345  -10.367371  -22.936813  13.776905  9.694116  -17.345466  9.99022  7.774298  
0.0  93.25843  0.0  -6.747017  -5.83812  -131.628433  2.232095  -11.584234  22.640476  -11.427436  1.022664  17.156237  0.358641  1.870992  4.012666  32.471047  -36.144451  -105.198172  20.562023  31.572107  108.656116  14.919843  15.426748  3.924097  -1.313091  -2.680974  3.761207  -4.01114  -7.10042  10.460788  -4.011141  -7.100421  10.460788  -0.395482  28.426748  18.848256  170.720142  41.71641  -142.444263  -20.233316  2.196592  55.328682  93.319355  -2.159288  -15.151853  -3.097285  -2.719171  26.004342  59.938431  38.489568  31.937644  -25.209815  -4.63522  -75.415956  85.147919  -7.915626  -12.219398  -22.186678  13.830502  8.870969  -16.765997  10.070631  7.142722  
0.0  93.25843  0.0  -6.555102  -5.212897  -131.75236  2.010522  -11.299753  22.551805  -11.432666  1.360395  17.53376  0.277115  1.877022  4.022803  32.292835  -35.560269  -105.307328  19.226812  31.148583  108.494532  13.425812  16.68113  4.312591  -1.526953  -2.667483  3.835968  -4.601485  -7.023942  10.68674  -4.601485  -7.023942  10.686739  1.956926  28.420564  19.201302  169.561874  41.227306  -144.848326  -17.518308  1.874732  52.676293  91.043052  -2.242444  -17.582114  -1.529783  -2.204892  26.245717  52.790214  35.538174  30.353304  -23.336619  -3.16287  -73.338922  87.745  -11.877716  -11.170346  -21.442862  14.02896  8.309561  -16.197894  10.248841  6.711676  
0.0  93.25843  0.0  -6.292734  -4.706171  -131.669601  1.62926  -10.81399  22.281675  -11.1025  1.629422  17.881201  0.302155  1.879694  4.09412  32.101167  -35.760767  -104.760645  19.769018  31.532802  109.017604  13.885566  16.515316  3.932015  -1.685894  -2.602696  3.892877  -5.030511  -6.816973  10.852558  -5.030511  -6.816973  10.852558  3.369126  28.158079  19.331143  168.423528  40.320157  -147.138535  -17.525551  2.553841  50.315272  90.958191  -3.36867  -18.360134  -0.41783  -1.035835  26.658163  45.557514  33.794754  28.62706  -19.73211  -5.396032  -70.844091  90.587357  -12.012793  -7.83611  -20.710102  14.058776  7.977191  -15.643071  10.291233  6.446437  
0.0  93.25843  0.0  -6.077497  -4.502619  -131.499114  1.246339  -10.379997  21.880101  -10.642706  1.851522  18.19163  0.391461  1.868108  4.136827  31.669303  -36.230895  -103.323418  19.827282  31.45458  109.120619  14.899067  16.263704  4.058593  -1.789549  -2.456972  4.115246  -5.308955  -6.384276  11.456924  -5.308955  -6.384276  11.456925  3.428487  27.49916  17.76696  166.485861  39.432314  -150.41637  -18.960062  2.04859  48.44735  90.717884  -4.253278  -17.853203  0.327546  -0.384383  26.119027  40.207602  32.508136  27.960295  -15.835096  -7.812554  -70.397852  87.84774  -11.728994  -3.799383  -20.094132  13.404832  7.494684  -15.170376  9.822695  6.050943  
0.0  93.25843  0.0  -5.899413  -4.510781  -131.028758  1.245273  -10.255583  21.172102  -10.444051  2.093877  18.363035  0.533472  1.849297  4.178913  31.1225  -36.976073  -101.231723  19.343197  31.032714  108.482956  14.708757  16.501424  4.384521  -1.761396  -2.325732  4.261054  -5.220681  -6.019914  11.840277  -5.220681  -6.019914  11.840277  2.527668  26.844359  16.36748  164.67533  38.111676  -153.146099  -19.473639  -0.05982  47.108009  89.409626  -4.345523  -17.157684  -0.234665  0.092028  25.896468  37.419909  30.785279  27.378511  -13.780714  -4.397693  -71.078007  80.693753  -11.73158  -2.460919  -19.945746  12.685114  7.253179  -15.052426  9.291385  5.845025  
0.0  93.25843  0.0  -5.604831  -4.776125  -130.552961  1.68081  -10.371606  20.447701  -10.444461  2.378308  18.398527  0.63695  1.798737  4.180776  30.588751  -37.601106  -98.729426  18.616313  30.57452  107.995631  13.205883  16.8773  4.155041  -1.616086  -2.213357  4.333944  -4.808912  -5.734731  12.016572  -4.808912  -5.734731  12.016573  1.231825  26.288864  15.469346  163.606006  37.329555  -155.393235  -19.124253  -1.589324  46.016652  87.11749  -4.301004  -16.988552  -1.770842  0.496677  25.776205  38.137055  28.924046  27.512489  -14.562565  -3.160729  -68.612529  77.880469  -8.811677  -2.900604  -20.134273  12.105185  7.22492  -15.191145  8.854612  5.810089  
0.0  93.25843  0.0  -5.190425  -5.117973  -129.949537  2.284554  -10.46668  19.619042  -10.386484  2.633446  18.348687  0.776484  1.694754  4.200515  29.960833  -37.994528  -95.933261  17.857041  30.198295  107.647688  11.912883  17.163849  3.84755  -1.441423  -2.080532  4.359924  -4.309112  -5.403401  12.061765  -4.309112  -5.403402  12.061765  0.068981  25.624065  14.876399  162.654729  37.055939  -157.109908  -19.550527  -2.21466  44.545669  85.028087  -4.301004  -16.571344  -3.204934  -0.128805  25.132321  40.667864  27.383021  28.717376  -16.649599  -3.757488  -66.327026  79.155193  -7.575047  -1.953971  -20.378278  11.568343  7.236058  -15.37216  8.448323  5.806682  
0.0  93.25843  0.0  -4.727732  -5.544977  -129.209933  2.81519  -10.397815  18.647484  -10.036781  2.742765  18.310488  0.868771  1.544824  4.195428  29.152572  -38.252576  -92.815151  17.130101  29.734915  107.386874  11.374858  17.153166  3.686145  -1.297839  -1.954465  4.352457  -3.892977  -5.087084  12.020186  -3.892977  -5.087084  12.020185  -0.595818  24.962027  14.574157  161.580494  36.856666  -158.284679  -20.635583  -2.482187  42.793093  83.50844  -4.265697  -15.698868  -3.771639  -0.939254  24.735935  42.741946  26.206035  29.629887  -19.062139  -3.439564  -63.846981  80.981023  -7.248668  -0.620353  -20.510674  11.165604  7.204477  -15.46924  8.145374  5.772952  
0.0  93.25843  0.0  -4.289482  -6.075323  -128.310244  3.32748  -10.289716  17.555041  -9.504359  2.724663  18.235254  1.039424  1.410067  4.230017  28.198037  -38.433117  -89.388895  16.335972  29.131932  107.081935  10.734413  17.091089  3.482281  -1.207249  -1.818482  4.308966  -3.617349  -4.736023  11.884561  -3.617349  -4.736023  11.884561  -0.611267  24.259202  14.63288  161.05802  36.709677  -158.731233  -20.791403  -2.578991  41.066606  82.180432  -4.115616  -14.974932  -3.673398  -1.741878  24.39551  44.492806  25.27004  30.631217  -21.035169  -2.321395  -61.997983  81.848134  -7.546562  0.644179  -20.409696  10.839354  7.199848  -15.392528  7.901508  5.757265  
